<?xml version="1.0" standalone="yes"?>
<svg xmlns="http://www.w3.org/2000/svg" width="502" height="452">
<path style="fill:#010101; stroke:none;" d="M0 0L0 347C18.0632 342.07 35.3204 333.587 52 325.247C58.8098 321.842 66.7923 319.605 73 315.211C82.9771 308.15 90.4495 298.564 99 290C124.034 264.925 145.469 237.491 163.548 207C177.117 184.114 190.057 160.86 203.691 138C213.873 120.93 224.442 103.291 240 90.4637C264.841 69.9815 296.159 61.625 328 62.0038C339.053 62.1353 357.746 62.7466 362 75C382.059 58.8261 401.818 41.4943 421 24C431.955 14.0087 445.371 1.13107 461 1C450.258 -3.50748 431.682 0 420 0L326 0L0 0z"/>
<path style="fill:#f49d39; stroke:none;" d="M482 34C491.246 16.6093 466.452 -4.04358 450 2.47919C429.77 10.4997 412.46 31.3827 397 45.9568C389.481 53.0447 379.588 56.8692 372.015 64.0895C355.072 80.2417 338.717 104.287 327.781 125C321.052 137.745 306.425 159.906 309.544 175C312.467 189.148 336.315 201.652 347 210.2C381.491 237.793 409.829 272.639 448 295.396C459.209 302.078 472.478 311.993 486 311.992C493.731 311.992 502.217 308.059 501.773 299.001C501.628 296.03 500.066 293.063 496.906 292.603C480.453 290.211 469.165 291.946 454 282.305C419.121 260.131 388.862 227.465 365 194C358.77 185.262 343.715 169.555 345.38 158C347.183 145.496 366.587 132.337 374.572 123C396.318 97.5721 412.201 68.6822 430.667 41C436.65 32.0296 447.085 14.0536 458 10.8364C467.347 8.08145 479.815 26.5761 482 34z"/>
<path style="fill:#fcfdfa; stroke:none;" d="M463 0L464 1L463 0z"/>
<path style="fill:#010101; stroke:none;" d="M464 0L464 1C470.331 5.77136 479.333 11.5564 482.633 19.0146C488.133 31.4485 480.734 54.2529 478 67C471.84 95.7171 464.753 124.493 457.627 153C454.678 164.794 447.573 179.901 448.209 192C448.888 204.898 455.648 215.99 461.694 227C474.484 250.289 490.783 271.563 501 296L502 296L502 0L464 0z"/>
<path style="fill:#fcfdfa; stroke:none;" d="M444 5L445 6L444 5M441 7L442 8L441 7M472 7L473 8L472 7M473 8L474 9L473 8M438 9L439 10L438 9M474 9L475 10L474 9M437 10L438 11L437 10z"/>
<path style="fill:#b95129; stroke:none;" d="M457 10.757C445.204 14.9498 435.271 33.093 428.667 43C409.605 71.5956 393.335 101.355 370.075 127C361.659 136.278 341.681 149.624 345.789 164C349.344 176.44 360.313 188.732 367.884 199C389.522 228.344 415.453 255.389 445 276.848C456.478 285.184 480.528 300.111 495.678 292.258C501.463 289.259 493.069 278.111 491 275C479.962 258.403 469.535 241.432 459.861 224C454.926 215.108 449.279 205.299 448.174 195C446.579 180.145 455.012 162.54 458.349 148C465.652 116.176 475.384 84.2253 480.562 52C482.955 37.1069 482.126 27.9937 470.999 17.0046C467.341 13.3918 462.656 8.74661 457 10.757z"/>
<path style="fill:#fcfdfa; stroke:none;" d="M475 10L476 11L475 10M476 11L477 12L476 11M434 12L435 13L434 12M477 12L478 13L477 12M433 13L434 14L433 13M478 13L479 14L478 13M432 14L433 15L432 14M479 14L481 16L481 14L479 14M429 16L430 17L429 16M481 16L482 17L481 16M428 17L429 18L428 17M427 18L428 19L427 18M482 18L483 19L482 18M424 20L425 21L424 20M483 20L484 21L483 20M423 21L424 22L423 21M422 22L423 23L422 22M421 23L422 24L421 23M415 28L416 29L415 28M414 29L415 30L414 29M483.333 30.6667L483.667 31.3333L483.333 30.6667M482 34L482 40L483 40L482 34M407 35L408 36L407 35M406 36L407 37L406 36M405 37L406 38L405 37M404 38L405 39L404 38M403 39L404 40L403 39M402 40L403 41L402 40M401 41L402 42L401 41z"/>
<path style="fill:#f49d39; stroke:none;" d="M481 44L481 48L482 48L481 44z"/>
<path style="fill:#fcfdfa; stroke:none;" d="M396 46L397 47L396 46M395 47L396 48L395 47M392 50L395 48L392 50M481.333 48.6667L481.667 49.3333L481.333 48.6667M391 50L392 51L391 50M389 51L390 52L389 51z"/>
<path style="fill:#f49d39; stroke:none;" d="M480 52L480 55L481 55L480 52z"/>
<path style="fill:#fcfdfa; stroke:none;" d="M386 53L387 54L386 53M480 55L481 56L480 55z"/>
<path style="fill:#f49d39; stroke:none;" d="M479 57L479 60L480 60L479 57z"/>
<path style="fill:#fcfdfa; stroke:none;" d="M377 59L378 60L377 59M376 60L377 61L376 60M479 60L480 61L479 60M311 62L311 63L314 63L311 62z"/>
<path style="fill:#6fc15f; stroke:none;" d="M96 293C130.027 316.147 163.168 340.595 197 364.025C206.047 370.29 214.953 376.759 224 383.025C227.437 385.405 231.73 389.848 235.961 390.596C240.28 391.36 243.481 384.854 245.627 382C253.104 372.052 261.536 362.537 271 354.428C301.145 328.6 338.595 314.721 369 289.246C377.656 281.994 395.435 267.837 395.306 255C395.223 246.654 380.703 237.306 375 232.428C359.975 219.579 344.434 207.348 329 195C322.428 189.742 312.85 184.433 310.123 176C307.675 168.427 312.632 158.92 315.4 152C323.554 131.615 334.699 112.151 348.4 95C353.479 88.641 369.337 74.7606 356.895 67.6844C341.998 59.2118 318.158 61.4258 302 63.7292C215.41 76.0728 191.259 169.17 147.975 232C132.652 254.241 111.71 271.655 96 293z"/>
<path style="fill:#fcfdfa; stroke:none;" d="M331 62L331 63L335 63L331 62M373 62L374 63L373 62z"/>
<path style="fill:#f49d39; stroke:none;" d="M478 62L478 65L479 65L478 62z"/>
<path style="fill:#fcfdfa; stroke:none;" d="M340 63L340 64L343 64L340 63M372 63L373 64L372 63M346 64L346 65L349 65L346 64M291 65L292 66L291 65M350 65L350 66L354 66L350 65M287 66L288 67L287 66M354.667 66.3333L355.333 66.6667L354.667 66.3333z"/>
<path style="fill:#f49d39; stroke:none;" d="M477.333 67.6667L477.667 68.3333L477.333 67.6667z"/>
<path style="fill:#fcfdfa; stroke:none;" d="M280 68L281 69L280 68M277 69L278 70L277 69M477 69L478 70L477 69M274 70L275 71L274 70M360 70L361 71L360 70M366 70L367 71L366 70M271 71L272 72L271 71M365 71L366 72L365 71z"/>
<path style="fill:#f49d39; stroke:none;" d="M476.333 71.6667L476.667 72.3333L476.333 71.6667z"/>
<path style="fill:#fcfdfa; stroke:none;" d="M268.667 72.3333L269.333 72.6667L268.667 72.3333M361 72L362 73L361 72M266.667 73.3333L267.333 73.6667L266.667 73.3333M476 73L477 74L476 73M264 74L265 75L264 74M262 75L263 76L262 75M362 75L363 76L362 75z"/>
<path style="fill:#f49d39; stroke:none;" d="M475.333 75.6667L475.667 76.3333L475.333 75.6667z"/>
<path style="fill:#fcfdfa; stroke:none;" d="M260 76L261 77L260 76M258 77L259 78L258 77z"/>
<path style="fill:#f49d39; stroke:none;" d="M474.333 78.6667L474.667 79.3333L474.333 78.6667z"/>
<path style="fill:#fcfdfa; stroke:none;" d="M255 79L256 80L255 79M253 80L254 81L253 80M474 80L475 81L474 80M251 81L252 82L251 81M250 82L251 83L250 82z"/>
<path style="fill:#f49d39; stroke:none;" d="M473.333 82.6667L473.667 83.3333L473.333 82.6667z"/>
<path style="fill:#fcfdfa; stroke:none;" d="M248 83L249 84L248 83M247 84L248 85L247 84M473 84L474 85L473 84z"/>
<path style="fill:#f49d39; stroke:none;" d="M472.333 86.6667L472.667 87.3333L472.333 86.6667z"/>
<path style="fill:#fcfdfa; stroke:none;" d="M243 87L244 88L243 87M472 88L473 89L472 88M239 90L240 91L239 90z"/>
<path style="fill:#f49d39; stroke:none;" d="M471 90L471 93L472 93L471 90z"/>
<path style="fill:#fcfdfa; stroke:none;" d="M238 91L239 92L238 91M237 92L238 93L237 92M236 93L237 94L236 93M471 93L472 94L471 93M235 94L236 95L235 94z"/>
<path style="fill:#f49d39; stroke:none;" d="M470.333 95.6667L470.667 96.3333L470.333 95.6667z"/>
<path style="fill:#fcfdfa; stroke:none;" d="M470 97L471 98L470 97M231 98L232 99L231 98M230 99L231 100L230 99M229 100L230 101L229 100z"/>
<path style="fill:#f49d39; stroke:none;" d="M469.333 100.667L469.667 101.333L469.333 100.667z"/>
<path style="fill:#fcfdfa; stroke:none;" d="M228 101L229 102L228 101M469 102L470 103L469 102z"/>
<path style="fill:#f49d39; stroke:none;" d="M468.333 104.667L468.667 105.333L468.333 104.667z"/>
<path style="fill:#fcfdfa; stroke:none;" d="M224 106L225 107L224 106M468 106L469 107L468 106M223 107L224 108L223 107z"/>
<path style="fill:#f49d39; stroke:none;" d="M467.333 109.667L467.667 110.333L467.333 109.667z"/>
<path style="fill:#fcfdfa; stroke:none;" d="M221 110L222 111L221 110M220 111L221 112L220 111M467 111L468 112L467 111z"/>
<path style="fill:#f49d39; stroke:none;" d="M466.333 113.667L466.667 114.333L466.333 113.667z"/>
<path style="fill:#fcfdfa; stroke:none;" d="M218 114L219 115L218 114M217 115L218 116L217 115M466 115L467 116L466 115M216 117L217 118L216 117z"/>
<path style="fill:#f49d39; stroke:none;" d="M465.333 117.667L465.667 118.333L465.333 117.667z"/>
<path style="fill:#fcfdfa; stroke:none;" d="M215 118L214 121L215 118M465 119L466 120L465 119M213 122L214 123L213 122z"/>
<path style="fill:#f49d39; stroke:none;" d="M464.333 122.667L464.667 123.333L464.333 122.667z"/>
<path style="fill:#fcfdfa; stroke:none;" d="M212 123L213 124L212 123M211.333 124.667L211.667 125.333L211.333 124.667M464 124L465 125L464 124M210 126L209 129L210 126z"/>
<path style="fill:#f49d39; stroke:none;" d="M463.333 126.667L463.667 127.333L463.333 126.667z"/>
<path style="fill:#fcfdfa; stroke:none;" d="M208.333 129.667L208.667 130.333L208.333 129.667z"/>
<path style="fill:#f49d39; stroke:none;" d="M462.333 130.667L462.667 131.333L462.333 130.667z"/>
<path style="fill:#fcfdfa; stroke:none;" d="M207.333 131.667L207.667 132.333L207.333 131.667z"/>
<path style="fill:#b95129; stroke:none;" d="M242 131L243 132L242 131z"/>
<path style="fill:#010101; stroke:none;" d="M243.004 131.704C227.117 137.06 234.893 161.86 250.985 156.297C266.076 151.081 258.041 126.634 243.004 131.704z"/>
<path style="fill:#b95129; stroke:none;" d="M250 131L251 132L250 131M252 132L253 133L252 132z"/>
<path style="fill:#fcfdfa; stroke:none;" d="M462 132L463 133L462 132M206 133L207 134L206 133z"/>
<path style="fill:#b95129; stroke:none;" d="M239 133L240 134L239 133z"/>
<path style="fill:#fcfdfa; stroke:none;" d="M205.333 134.667L205.667 135.333L205.333 134.667z"/>
<path style="fill:#f49d39; stroke:none;" d="M461.333 134.667L461.667 135.333L461.333 134.667z"/>
<path style="fill:#fcfdfa; stroke:none;" d="M204.333 136.667L204.667 137.333L204.333 136.667z"/>
<path style="fill:#b95129; stroke:none;" d="M236 136L237 137L236 136z"/>
<path style="fill:#fcfdfa; stroke:none;" d="M461 136L462 137L461 136z"/>
<path style="fill:#b95129; stroke:none;" d="M257 137L258 138L257 137z"/>
<path style="fill:#fcfdfa; stroke:none;" d="M203 138L204 139L203 138z"/>
<path style="fill:#f49d39; stroke:none;" d="M460.333 138.667L460.667 139.333L460.333 138.667z"/>
<path style="fill:#fcfdfa; stroke:none;" d="M202 140L203 141L202 140M460 140L461 141L460 140M201 141L200 144L201 141z"/>
<path style="fill:#b95129; stroke:none;" d="M259 142L260 143L259 142z"/>
<path style="fill:#f49d39; stroke:none;" d="M459 142L459 145L460 145L459 142z"/>
<path style="fill:#fcfdfa; stroke:none;" d="M199.333 144.667L199.667 145.333L199.333 144.667z"/>
<path style="fill:#b95129; stroke:none;" d="M233.333 144.667L233.667 145.333L233.333 144.667M259.333 145.667L259.667 146.333L259.333 145.667z"/>
<path style="fill:#fcfdfa; stroke:none;" d="M459 145L460 146L459 145M198 146L197 149L198 146z"/>
<path style="fill:#f49d39; stroke:none;" d="M458.333 147.667L458.667 148.333L458.333 147.667z"/>
<path style="fill:#fcfdfa; stroke:none;" d="M196.333 149.667L196.667 150.333L196.333 149.667z"/>
<path style="fill:#b95129; stroke:none;" d="M258 149L259 150L258 149z"/>
<path style="fill:#fcfdfa; stroke:none;" d="M458 149L459 150L458 149M195 151L194 154L195 151z"/>
<path style="fill:#f49d39; stroke:none;" d="M457.333 151.667L457.667 152.333L457.333 151.667z"/>
<path style="fill:#b95129; stroke:none;" d="M236 152L237 153L236 152M256 152L257 153L256 152M237 153L238 154L237 153z"/>
<path style="fill:#fcfdfa; stroke:none;" d="M457 153L458 154L457 153M193.333 154.667L193.667 155.333L193.333 154.667z"/>
<path style="fill:#b95129; stroke:none;" d="M238 154L239 155L238 154M254 154L255 155L254 154z"/>
<path style="fill:#f49d39; stroke:none;" d="M456.333 155.667L456.667 156.333L456.333 155.667z"/>
<path style="fill:#fcfdfa; stroke:none;" d="M192 156L191 159L192 156z"/>
<path style="fill:#b95129; stroke:none;" d="M242 156L243 157L242 156M251 156L252 157L251 156M246 157L246 158L249 158L246 157z"/>
<path style="fill:#fcfdfa; stroke:none;" d="M456 157L457 158L456 157M190.333 159.667L190.667 160.333L190.333 159.667z"/>
<path style="fill:#f49d39; stroke:none;" d="M455.333 159.667L455.667 160.333L455.333 159.667z"/>
<path style="fill:#fcfdfa; stroke:none;" d="M189 161L188 164L189 161M455 161L456 162L455 161z"/>
<path style="fill:#f49d39; stroke:none;" d="M454.333 163.667L454.667 164.333L454.333 163.667z"/>
<path style="fill:#fcfdfa; stroke:none;" d="M187.333 164.667L187.667 165.333L187.333 164.667M454 165L455 166L454 165M186.333 166.667L186.667 167.333L186.333 166.667z"/>
<path style="fill:#f49d39; stroke:none;" d="M453 167L453 170L454 170L453 167z"/>
<path style="fill:#fcfdfa; stroke:none;" d="M185 168L184 171L185 168M453 170L454 171L453 170M183.333 171.667L183.667 172.333L183.333 171.667M182.333 173.667L182.667 174.333L182.333 173.667z"/>
<path style="fill:#f49d39; stroke:none;" d="M452 173L453 174L452 173z"/>
<path style="fill:#fcfdfa; stroke:none;" d="M452 174L453 175L452 174M181 175L182 176L181 175M180.333 176.667L180.667 177.333L180.333 176.667z"/>
<path style="fill:#f49d39; stroke:none;" d="M451 176L452 177L451 176z"/>
<path style="fill:#fcfdfa; stroke:none;" d="M179.333 178.667L179.667 179.333L179.333 178.667z"/>
<path style="fill:#f49d39; stroke:none;" d="M450 178L451 179L450 178z"/>
<path style="fill:#fcfdfa; stroke:none;" d="M450 179L451 180L450 179M178.333 180.667L178.667 181.333L178.333 180.667z"/>
<path style="fill:#f49d39; stroke:none;" d="M449.333 180.667L449.667 181.333L449.333 180.667z"/>
<path style="fill:#fcfdfa; stroke:none;" d="M177 182L178 183L177 182M449 182L450 183L449 182M176.333 183.667L176.667 184.333L176.333 183.667z"/>
<path style="fill:#f49d39; stroke:none;" d="M448 184L448 187L449 187L448 184z"/>
<path style="fill:#fcfdfa; stroke:none;" d="M175.333 185.667L175.667 186.333L175.333 185.667M448 187L449 188L448 187M173 189L174 190L173 189M172 191L173 192L172 191M171 193L172 194L171 193M170 194L171 195L170 194M448 194L448 197L449 197L448 194M169 196L170 197L169 196z"/>
<path style="fill:#f49d39; stroke:none;" d="M448 197L449 198L448 197z"/>
<path style="fill:#fcfdfa; stroke:none;" d="M168 198L169 199L168 198M167.333 199.667L167.667 200.333L167.333 199.667M449 200L450 201L449 200M166 201L167 202L166 201z"/>
<path style="fill:#f49d39; stroke:none;" d="M449 201L450 202L449 201z"/>
<path style="fill:#fcfdfa; stroke:none;" d="M165 203L166 204L165 203M450 204L451 205L450 204M164 205L165 206L164 205M163 207L164 208L163 207z"/>
<path style="fill:#f49d39; stroke:none;" d="M451 207L452 208L451 207z"/>
<path style="fill:#fcfdfa; stroke:none;" d="M162 208L163 209L162 208M452 209L453 210L452 209M161 210L162 211L161 210M160.333 211.667L160.667 212.333L160.333 211.667M453 211L454 212L453 211M159 213L160 214L159 213M454 213L455 214L454 213z"/>
<path style="fill:#f49d39; stroke:none;" d="M454 214L455 215L454 214z"/>
<path style="fill:#fcfdfa; stroke:none;" d="M158 215L159 216L158 215M455 215L456 216L455 215M157.333 216.667L157.667 217.333L157.333 216.667M456 217L457 218L456 217M156 218L157 219L156 218M457 219L458 220L457 219M155 220L156 221L155 220M154 221L155 222L154 221z"/>
<path style="fill:#f49d39; stroke:none;" d="M458 221L459 222L458 221z"/>
<path style="fill:#fcfdfa; stroke:none;" d="M153 223L154 224L153 223z"/>
<path style="fill:#f49d39; stroke:none;" d="M459 223L460 224L459 223z"/>
<path style="fill:#fcfdfa; stroke:none;" d="M152.333 224.667L152.667 225.333L152.333 224.667M460 224L461 225L460 224z"/>
<path style="fill:#f49d39; stroke:none;" d="M460 225L461 226L460 225z"/>
<path style="fill:#fcfdfa; stroke:none;" d="M151 226L152 227L151 226M461 226L462 227L461 226M150 228L151 229L150 228M462 228L463 229L462 228M149 229L150 230L149 229z"/>
<path style="fill:#f49d39; stroke:none;" d="M463 230L464 231L463 230z"/>
<path style="fill:#fcfdfa; stroke:none;" d="M148 231L149 232L148 231M147 232L148 233L147 232z"/>
<path style="fill:#f49d39; stroke:none;" d="M464 232L465 233L464 232z"/>
<path style="fill:#fcfdfa; stroke:none;" d="M146.333 233.667L146.667 234.333L146.333 233.667M465 233L466 234L465 233M145 235L146 236L145 235M466 235L467 236L466 235M144 236L145 237L144 236z"/>
<path style="fill:#f49d39; stroke:none;" d="M467 237L468 238L467 237z"/>
<path style="fill:#fcfdfa; stroke:none;" d="M143 238L144 239L143 238M468 238L469 239L468 238M142 239L143 240L142 239z"/>
<path style="fill:#f49d39; stroke:none;" d="M468 239L469 240L468 239z"/>
<path style="fill:#fcfdfa; stroke:none;" d="M141.333 240.667L141.667 241.333L141.333 240.667M469 240L470 241L469 240M140 242L141 243L140 242z"/>
<path style="fill:#f49d39; stroke:none;" d="M470 242L471 243L470 242z"/>
<path style="fill:#fcfdfa; stroke:none;" d="M139 243L140 244L139 243M138.333 244.667L138.667 245.333L138.333 244.667z"/>
<path style="fill:#f49d39; stroke:none;" d="M471 244L472 245L471 244z"/>
<path style="fill:#fcfdfa; stroke:none;" d="M472 245L473 246L472 245M137 246L138 247L137 246M136 247L137 248L136 247M473 247L474 248L473 247M135 248L134 251L135 248z"/>
<path style="fill:#f49d39; stroke:none;" d="M474 249L475 250L474 249z"/>
<path style="fill:#fcfdfa; stroke:none;" d="M475 250L476 251L475 250M133 251L134 252L133 251M132 252L133 253L132 252z"/>
<path style="fill:#f49d39; stroke:none;" d="M476 252L477 253L476 252z"/>
<path style="fill:#fcfdfa; stroke:none;" d="M131 254L132 255L131 254M396 254L394 259L395 259L396 256L405 264L396 254z"/>
<path style="fill:#f49d39; stroke:none;" d="M477 254L478 255L477 254z"/>
<path style="fill:#fcfdfa; stroke:none;" d="M130 255L131 256L130 255M478 255L479 256L478 255M129 256L130 257L129 256z"/>
<path style="fill:#010101; stroke:none;" d="M396 256C371.377 307.532 306.959 319.105 269 357C257.01 368.97 237.394 383.49 237 402L236 402L235 400L235 403C231.442 404.92 230.683 407.02 231 411L229 410L230 412L227 411L220.323 423.001L211 452L502 452L502 302L501 302C495.8 317.252 479.655 312.114 469 306.752C442.073 293.202 419.957 273.782 396 256z"/>
<path style="fill:#fcfdfa; stroke:none;" d="M128 257L129 258L128 257z"/>
<path style="fill:#f49d39; stroke:none;" d="M479 257L480 258L479 257z"/>
<path style="fill:#fcfdfa; stroke:none;" d="M480 258L481 259L480 258M127 259L128 260L127 259M126 260L127 261L126 260M393.333 260.667L393.667 261.333L393.333 260.667z"/>
<path style="fill:#f49d39; stroke:none;" d="M481 260L482 261L481 260z"/>
<path style="fill:#fcfdfa; stroke:none;" d="M125 261L126 262L125 261M124 262L125 263L124 262M392.333 262.667L392.667 263.333L392.333 262.667z"/>
<path style="fill:#f49d39; stroke:none;" d="M482 262L483 263L482 262z"/>
<path style="fill:#fcfdfa; stroke:none;" d="M123 263L124 264L123 263M483 263L484 264L483 263M391 264L392 265L391 264M406 264L407 265L406 264M407 265L408 266L407 265z"/>
<path style="fill:#f49d39; stroke:none;" d="M484 265L485 266L484 265z"/>
<path style="fill:#fcfdfa; stroke:none;" d="M121 266L122 267L121 266M390 266L391 267L390 266M408 266L409 267L408 266M485 266L486 267L485 266M120 267L121 268L120 267M119 268L120 269L119 268M411 268L412 269L411 268z"/>
<path style="fill:#f49d39; stroke:none;" d="M486 268L487 269L486 268z"/>
<path style="fill:#fcfdfa; stroke:none;" d="M118 269L119 270L118 269M412 269L413 270L412 269M487 269L488 270L487 269M117 270L118 271L117 270M387 270L388 271L387 270M415 271L416 272L415 271z"/>
<path style="fill:#f49d39; stroke:none;" d="M488 271L489 272L488 271z"/>
<path style="fill:#fcfdfa; stroke:none;" d="M115 272L116 273L115 272M416 272L417 273L416 272M489 272L490 273L489 272M114 273L115 274L114 273M419 274L420 275L419 274z"/>
<path style="fill:#f49d39; stroke:none;" d="M490 274L491 275L490 274z"/>
<path style="fill:#fcfdfa; stroke:none;" d="M491 275L492 276L491 275M382 276L383 277L382 276M111 277L112 278L111 277M381 277L382 278L381 277z"/>
<path style="fill:#f49d39; stroke:none;" d="M492 277L493 278L492 277z"/>
<path style="fill:#fcfdfa; stroke:none;" d="M110 278L111 279L110 278M380 278L381 279L380 278M493 278L494 279L493 278M109 279L110 280L109 279M379 279L380 280L379 279M425 279L426 280L425 279M108 280L109 281L108 280M378 280L379 281L378 280z"/>
<path style="fill:#f49d39; stroke:none;" d="M494 280L495 281L494 280z"/>
<path style="fill:#fcfdfa; stroke:none;" d="M107 281L108 282L107 281M377 281L378 282L377 281M495 281L496 282L495 281M106 282L107 283L106 282M376 282L377 283L376 282M105 283L106 284L105 283M375 283L376 284L375 283M496 283L497 284L496 283M104 284L105 285L104 284M374 284L375 285L374 284z"/>
<path style="fill:#f49d39; stroke:none;" d="M496 284L497 285L496 284z"/>
<path style="fill:#fcfdfa; stroke:none;" d="M103 285L104 286L103 285M373 285L374 286L373 285M102 286L103 287L102 286M497 286L498 287L497 286M101 287L102 288L101 287z"/>
<path style="fill:#f49d39; stroke:none;" d="M497 287L498 288L497 287z"/>
<path style="fill:#fcfdfa; stroke:none;" d="M369 288L370 289L369 288M368 289L369 290L368 289M367 290L368 291L367 290M498 290L500 293L498 290M65 319L65 320L219 428L227 411L230 412L229 410L231 411L231 410L235 403L236 402L237 402L239 391C228.771 389.988 216.356 376.811 208 371.025C181.534 352.697 155.193 334.138 129 315.421C121.238 309.875 106.546 294.85 97.0039 294.021C92.7402 293.65 89.5138 299.343 86.9606 301.999C80.6443 308.57 73.4378 315.359 65 319M363 293L364 294L363 293M362 294L363 295L362 294M358 297L359 298L358 297M455 299L456 300L455 299M354 300L355 301L354 300M351 302L352 303L351 302M462 303L463 304L462 303M348 304L349 305L348 304M464 304L465 305L464 304M347 305L348 306L347 305M345.667 306.333L346.333 306.667L345.667 306.333M344 307L345 308L344 307M342 308L343 309L342 308M341 309L342 310L341 309M496 309L497 310L496 309M339 310L340 311L339 310M476 310L477 311L476 310M479 311L480 312L479 311M492 311L493 312L492 311M336 312L337 313L336 312M484 312L484 313L489 313L484 312M334 313L335 314L334 313M331 315L332 316L331 315M329 316L330 317L329 316M327 317L328 318L327 317M325.667 318.333L326.333 318.667L325.667 318.333z"/>
<path style="fill:#6fc15f; stroke:none;" d="M0 452L159 452L197 452C200.838 452 207.982 453.431 210.431 449.682C212.907 445.892 218.771 431.363 216.868 427.174C214.978 423.012 208.593 419.968 205 417.424C195.357 410.599 185.712 403.751 176 397.025C149.196 378.463 122.552 359.63 96 340.709C88.3826 335.281 73.4875 320.13 64 319.948C54.5882 319.768 41.5132 330.783 33 334.691C25.528 338.122 17.7939 341.059 10 343.667C7.09062 344.64 2.09896 345.366 0.603395 348.419C-2.85799 355.484 0 370.155 0 378L0 452z"/>
<path style="fill:#fcfdfa; stroke:none;" d="M324 319L325 320L324 319M322 320L323 321L322 320M320 321L321 322L320 321M318 322L319 323L318 322M316 323L317 324L316 323M314 324L315 325L314 324M51 325L52 326L51 325M312.667 325.333L313.333 325.667L312.667 325.333M49 326L50 327L49 326M310.667 326.333L311.333 326.667L310.667 326.333M47 327L48 328L47 327M309 327L310 328L309 327M45 328L46 329L45 328M307 328L308 329L307 328M43 329L44 330L43 329M305 329L306 330L305 329M41 330L42 331L41 330M303.667 330.333L304.333 330.667L303.667 330.333M39 331L40 332L39 331M302 331L303 332L302 331M37 332L38 333L37 332M300 332L301 333L300 332M35 333L36 334L35 333M297 335L300 333L297 335M32.6667 334.333L33.3333 334.667L32.6667 334.333M30.6667 335.333L31.3333 335.667L30.6667 335.333M294 337L297 335L294 337M28 336L29 337L28 336M26 337L27 338L26 337M291 339L294 337L291 339M23.6667 338.333L24.3333 338.667L23.6667 338.333M20.6667 339.333L21.3333 339.667L20.6667 339.333M288 341L291 339L288 341M18 340L19 341L18 340M15.6667 341.333L16.3333 341.667L15.6667 341.333M287 341L288 342L287 341M13 342L14 343L13 342M284 344L287 342L284 344M10 343L11 344L10 343M7 344L8 345L7 344M283 344L284 345L283 344M4 345L5 346L4 345M280 347L283 345L280 347M276 349L277 350L276 349M275 350L276 351L275 350M274 351L275 352L274 351M273 352L274 353L273 352M272 353L273 354L272 353M260 365L272 354L260 365M259 365L260 366L259 365M258 366L259 367L258 366M257 367L258 368L257 367M256 368L255 371L256 368M254 371L255 372L254 371M253 372L254 373L253 372M252 373L253 374L252 373M251 374L252 375L251 374M250 375L251 376L250 375M249 376L250 377L249 376M248 378L249 379L248 378M247 379L248 380L247 379M246 380L247 381L246 380M243 384L244 385L243 384M242 386L243 387L242 386M241 387L242 388L241 387M240.333 388.667L240.667 389.333L240.333 388.667M239 390L240 391L239 390M217 430L218 431L217 430M216.333 432.667L216.667 433.333L216.333 432.667M215.333 435.667L215.667 436.333L215.333 435.667M214.333 438.667L214.667 439.333L214.333 438.667M213 440L213 443L214 443L213 440M212 443L212 446L213 446L212 443M211.333 447.667L211.667 448.333L211.333 447.667M210.333 450.667L210.667 451.333L210.333 450.667z"/>
</svg>
